<svg xmlns="http://www.w3.org/2000/svg" viewBox="0 0 1024 1024" width="100" height="100">
    <path d="M260.10230194 90.125L329.54178738 111.94456204C320.28314231 131.33982517 312.18195084 150.73479824 305.23796743 170.13006137L517.02839487 170.13006137 517.02839487 239.22534131 395.50929678 239.22534131C414.0265853 263.46942062 432.54359613 290.13750717 451.06088464 319.23040268L378.14942563 359.23293296C359.63213794 318.01799903 338.80050086 278.01586838 315.6538898 239.22534131L270.51822512 239.22534131 232.32650842 301.04743445C218.43854246 320.44269758 199.92153162 342.26204126 176.77492138 366.50612058L114.27938473 319.23040268C181.40455539 251.34698093 230.01170913 174.9792772 260.10230194 90.125L260.10230194 90.125ZM621.18762179 90.125L687.15513202 111.94456204C680.21114862 131.33982517 672.10995633 150.73479824 662.8513129 170.13006137L909.36148017 170.13006137 909.36148017 239.22534131 767.01053818 239.22534131C785.52782834 263.46942062 801.73021457 288.92532187 815.61817972 315.59380887L753.12263977 355.59633914C732.29069287 314.38140522 710.30173977 275.59145986 687.15513202 239.22534131L631.60354416 239.22534131C608.45693393 282.86468374 578.36679184 324.07900051 541.33221481 362.86952676L478.83667815 315.59380887C543.64718796 247.71038712 591.09702817 172.55486868 621.18762179 90.125L621.18762179 90.125ZM298.29401864 344.68655853C330.69927395 376.20386091 357.31747625 410.14506338 378.14942563 446.51118195L312.18191623 482.87711841C295.97928857 448.93540752 271.6757117 414.99420586 239.27045721 381.05249582L298.29401864 344.68655853ZM416.34114234 377.41590201L864.22581467 377.41590201 864.22581467 835.62670984C864.22581467 867.14401138 857.28194085 891.38772485 843.39396994 908.3585803 829.50600562 925.32943572 808.67436606 933.81473615 780.89843659 933.81473615 757.75182635 933.81473615 729.97630722 932.60255332 697.57105191 930.1781448L680.21118323 861.08285993C717.24575778 863.50726843 747.33590399 864.71945786 770.48251422 864.71945786 786.68514188 864.71945786 794.78633499 847.74885538 794.78633499 813.80714533L794.78633499 439.23799432 416.34114234 439.23799432 416.34114234 377.41590201ZM180.24689495 475.60393078L249.68637958 475.60393078 249.68637958 933.81473615 180.24689495 933.81473615 180.24689495 475.60393078ZM669.79526086 515.60646189L669.79526086 828.35351975 350.37363211 828.35351975 350.37363211 515.60646189 669.79526086 515.60646189ZM603.82775064 639.25064734L603.82775064 577.42855502 416.34114234 577.42855502 416.34114234 639.25064734 603.82775064 639.25064734ZM416.34114234 697.43614585L416.34114234 766.53142496 603.82775064 766.53142496 603.82775064 697.43614585 416.34114234 697.43614585Z" fill="#f1412a"/>
</svg> 