<svg xmlns="http://www.w3.org/2000/svg" viewBox="0 0 1024 1024" width="100" height="100">
    <path d="M793.736533 99.601067L777.659733 1.570133s-10.581333 99.2256-127.453866 205.482667c-53.725867 49.015467-148.650667 102.741333-148.650667 102.741333l223.163733 386.286934s21.162667 63.931733-7.0656 123.904c-32.938667 70.212267-99.2256 113.322667-226.645333 116.872533-113.3568 3.140267-191.3856-63.931733-205.5168-155.682133-14.1312-90.965333 45.090133-161.1776 113.322667-187.835734 63.931733-24.712533 170.1888-14.1312 170.1888-14.1312L321.194667 161.1776l3.515733-42.325333s79.598933 10.171733 219.613867-17.681067c63.8976-12.936533 117.623467-34.133333 157.627733-53.725867a500.053333 500.053333 0 0 0-200.021333-41.5744C226.304 5.870933 2.389333 229.410133 2.389333 505.514667c0 275.694933 223.5392 499.6096 499.6096 499.6096 275.694933 0 499.6096-223.505067 499.6096-499.6096a502.442667 502.442667 0 0 0-207.872-405.845334z" fill="#FFDC00"/>
    <path d="M777.659733 1.570133s-92.16 70.997333-233.745066 99.2256c-139.9808 27.818667-219.613867 17.646933-219.613867 17.646934l-3.515733 42.325333 247.842133 418.474667s-106.2912-10.615467-170.1888 14.097066c-68.266667 26.282667-127.453867 96.8704-113.322667 187.835734 14.097067 92.16 92.16 158.8224 205.482667 155.682133 127.863467-3.515733 193.706667-46.660267 226.645333-116.872533 28.2624-60.381867 7.0656-123.904 7.0656-123.904L501.179733 309.794133s94.890667-53.725867 148.616534-102.741333c117.248-106.257067 127.863467-205.482667 127.863466-205.482667z" fill="#0AC094"/>
</svg> 