<svg xmlns="http://www.w3.org/2000/svg" viewBox="0 0 1131 1024" width="100" height="100">
    <path d="M311.139009 1.415563A228.988152 228.988152 0 0 1 415.790215 14.143412 1547.706482 1547.706482 0 0 1 629.335243 101.824152a2602.138091 2602.138091 0 0 1 334.714154 198.667587 758.01414 758.01414 0 0 1 130.729155 108.441276c21.778764 24.833448 39.597754 56.568219 36.147092 90.509151-5.09114 40.615982-33.318681 73.029571-60.98054 101.200545a2170.296304 2170.296304 0 0 1-381.778913 290.308102 1272.275822 1272.275822 0 0 1-223.727307 105.047183c-50.119442 17.309875-103.067296 32.07418-156.6374 26.983041a130.106905 130.106905 0 0 1-84.116942-39.597754 152.734192 152.734192 0 0 1-34.61975-73.538685l1.527342-2.149592c23.419243-5.656822 46.555645-12.727849 69.974887-18.101831a1427.216175 1427.216175 0 0 0 284.02903-107.140207 1921.169866 1921.169866 0 0 0 278.089366-165.462042c28.28411-21.60906 60.075449-42.765574 76.367096-76.367096a77.724733 77.724733 0 0 0-5.260844-75.348868 238.435045 238.435045 0 0 0-66.580795-66.580794 923.136772 923.136772 0 0 0-93.39413-58.77438C672.383658 303.263582 607.83932 271.528811 543.068709 239.79404a1802.433174 1802.433174 0 0 0-231.137745-92.432471c-35.355137-10.295416-70.484001-21.099946-105.895706-30.659975a298.963039 298.963039 0 0 1 14.877441-46.442508A117.831601 117.831601 0 0 1 311.139009 1.415563z" fill="#10ABF2"/>
    <path d="M92.276568 123.602917c33.205545-15.89567 71.389093-11.313644 106.404821-4.864867-10.578257 46.442508-16.574488 93.790108-23.81522 140.74173-1.018228 20.251423-3.16782 40.446277-5.656822 60.584563-3.846639 25.455699-2.941547 50.911397-7.014459 76.367096-0.735387 29.528611-2.149592 59.057221-3.337525 89.094945-3.054684 28.28411-1.244501 57.133902-1.753615 85.757421 0 42.765574-1.018228 85.644284 2.149592 128.296722 2.036456 65.166589 7.127596 130.106905 15.669397 194.820947v9.673166c-33.318681 5.996231-71.671934 10.80453-101.822795-9.56003S34.520416 836.249345 26.883707 803.270073A1862.056077 1862.056077 0 0 1 0.013803 480.831222a1407.304161 1407.304161 0 0 1 15.273419-168.403589 707.442151 707.442151 0 0 1 31.45193-134.519225 94.525495 94.525495 0 0 1 45.537416-54.362059z" fill="#FF8F21"/>
    <path d="M333.200615 285.105183a38.918935 38.918935 0 0 1 26.98304 7.240732l277.184275 171.684546a44.179779 44.179779 0 0 1 25.455699 32.809567c1.414205 15.273419-10.80453 26.983041-22.287878 35.128865-90.509151 60.697699-181.753689 120.999421-272.206272 181.979961a43.387824 43.387824 0 0 1-36.882479 7.749846A33.205545 33.205545 0 0 1 316.795831 690.133634V540.397557c-1.923319-56.22881 0-112.514188-1.018228-168.742998a402.426313 402.426313 0 0 1-1.810183-57.133902 29.528611 29.528611 0 0 1 19.459468-29.415474z" fill="#7DE621"/>
    <path d="M333.200615 285.105183a38.918935 38.918935 0 0 1 26.98304 7.240732l277.184275 171.684546a44.179779 44.179779 0 0 1 25.455699 32.809567c1.414205 15.273419-10.80453 26.983041-22.287878 35.128865-90.509151 60.697699-181.753689 120.999421-272.206272 181.979961a43.387824 43.387824 0 0 1-36.882479 7.749846A33.205545 33.205545 0 0 1 316.795831 690.133634V540.397557c-1.923319-56.22881 0-112.514188-1.018228-168.742998a402.426313 402.426313 0 0 1-1.810183-57.133902 29.528611 29.528611 0 0 1 19.459468-29.415474z" fill="#FFFFFF"/>
</svg> 